# xmcd
#
# Track frame offsets:
#	150
#	20913
#	39323
#	56232
#	76639
#	95269
#	108657
#	124502
#	140129
#	156896
#	176586
#	196033
#	213881
#	233001
#	250456
#	284012
#
# Disc length: 4289 seconds
#
# Revision: 1
# Processed by: cddbd v1.5.1PL2 Copyright (c) Steve Scherf et al.
# Submitted via: audiograbber 1.83.01
#
DISCID=df10bf10
DTITLE=LeAnn Rimes - Sittin' on Top of the World
DYEAR=1998
DGENRE=Pop
TTITLE0=Commitment
TTITLE1=Looking through your Eyes
TTITLE2=Undeniable
TTITLE3=Feels like Home
TTITLE4=Surrender
TTITLE5=These Arms of mine
TTITLE6=Nothin' new under the Moon
TTITLE7=When am I gonna get over you
TTITLE8=Rock me
TTITLE9=More than anyone deserves
TTITLE10=Insensitive
TTITLE11=All the lovin' and hurtin'
TTITLE12=Sittin' on Top of the World
TTITLE13=The Heart never forgets
TTITLE14=Purple Rain
TTITLE15=Daten-CD
EXTD=
EXTT0=
EXTT1=
EXTT2=
EXTT3=
EXTT4=
EXTT5=
EXTT6=
EXTT7=
EXTT8=
EXTT9=
EXTT10=
EXTT11=
EXTT12=
EXTT13=
EXTT14=
EXTT15=
PLAYORDER=
